<svg width="16" height="16" viewBox="0 0 16 16" fill="none" xmlns="http://www.w3.org/2000/svg">
<path d="M3.64648 8.87695C3.03125 8.87695 2.5332 8.38477 2.5332 7.76953C2.5332 7.1543 3.03125 6.65625 3.64648 6.65625C4.26172 6.65625 4.75391 7.1543 4.75391 7.76953C4.75391 8.38477 4.26172 8.87695 3.64648 8.87695ZM8 8.87695C7.38477 8.87695 6.88672 8.38477 6.88672 7.76953C6.88672 7.1543 7.38477 6.65625 8 6.65625C8.61523 6.65625 9.10742 7.1543 9.10742 7.76953C9.10742 8.38477 8.61523 8.87695 8 8.87695ZM12.3535 8.87695C11.7383 8.87695 11.2402 8.38477 11.2402 7.76953C11.2402 7.1543 11.7383 6.65625 12.3535 6.65625C12.9688 6.65625 13.4668 7.1543 13.4668 7.76953C13.4668 8.38477 12.9688 8.87695 12.3535 8.87695Z" fill="black" style="fill:black;fill-opacity:1;"/>
</svg>
