<?xml version="1.0" standalone="no"?>
<!DOCTYPE svg PUBLIC "-//W3C//DTD SVG 20010904//EN"
 "http://www.w3.org/TR/2001/REC-SVG-20010904/DTD/svg10.dtd">
<svg version="1.0" xmlns="http://www.w3.org/2000/svg"
 width="700.000000pt" height="700.000000pt" viewBox="0 0 700.000000 700.000000"
 preserveAspectRatio="xMidYMid meet">

<g transform="translate(0.000000,700.000000) scale(0.100000,-0.100000)"
fill="#000000" stroke="none">
<path d="M3304 5061 c-2 -3 -4 -457 -4 -1009 0 -553 -1 -1007 -4 -1009 -3 -3
-35 48 -113 187 -11 19 -111 193 -223 385 -111 193 -213 370 -227 395 -14 25
-29 50 -33 55 -4 6 -19 30 -32 55 -14 25 -57 100 -97 167 -39 68 -71 124 -71
127 0 2 -25 45 -55 95 -30 51 -55 96 -55 101 0 4 -3 10 -7 12 -5 2 -15 17 -24
33 -9 17 -42 74 -73 128 l-58 98 -41 -24 c-23 -14 -58 -34 -77 -45 -146 -83
-225 -132 -223 -141 1 -5 84 -150 184 -323 196 -337 208 -359 240 -415 12 -21
38 -67 59 -103 21 -36 47 -81 58 -100 10 -19 61 -107 112 -195 51 -88 104
-180 118 -205 13 -25 28 -49 32 -55 4 -5 19 -30 32 -55 14 -25 59 -103 101
-175 42 -71 74 -131 73 -132 -1 -2 -95 50 -207 115 -112 65 -224 130 -249 144
-25 14 -99 57 -165 95 -166 97 -832 482 -875 506 -44 24 -285 164 -326 188
l-30 18 -95 -162 c-52 -89 -94 -170 -94 -179 0 -12 111 -81 375 -234 206 -119
395 -228 420 -242 25 -13 50 -28 55 -32 6 -4 30 -19 55 -32 25 -14 117 -67
205 -118 88 -51 178 -103 200 -115 307 -176 458 -265 450 -266 -6 0 -493 -1
-1082 -1 l-1073 -1 -1 -31 c-1 -37 -1 -334 0 -356 1 -14 315 -16 3041 -16
l3040 0 1 21 c1 25 1 332 0 361 l-1 21 -1062 1 c-585 0 -1070 1 -1078 1 -8 1
19 21 60 44 41 24 257 149 480 277 388 224 916 529 1123 648 53 31 97 61 97
66 0 5 -44 85 -97 177 l-97 168 -46 -26 c-25 -15 -112 -66 -195 -113 -82 -48
-172 -100 -200 -117 -27 -16 -57 -32 -65 -36 -8 -5 -24 -13 -35 -20 -11 -7
-56 -33 -100 -58 -44 -25 -208 -120 -365 -211 -157 -91 -305 -176 -330 -190
-25 -14 -146 -84 -270 -156 -123 -72 -226 -130 -227 -128 -2 2 19 41 45 87
138 239 260 450 462 799 122 212 233 403 245 425 13 22 56 96 96 165 39 69 82
143 94 165 12 22 32 56 44 77 l22 36 -76 46 c-42 25 -78 46 -80 46 -3 0 -33
18 -68 39 -35 21 -78 46 -95 55 l-30 16 -80 -138 c-44 -75 -140 -240 -212
-367 -136 -235 -207 -358 -370 -640 -51 -88 -101 -175 -111 -192 -10 -18 -69
-119 -130 -225 -61 -106 -123 -213 -137 -238 -13 -25 -29 -50 -36 -57 -8 -9
-11 250 -11 1015 l0 1027 -198 0 c-109 0 -200 -2 -203 -4z"/>
</g>
</svg>
